<svg width="36" height="36" viewBox="0 0 36 36" fill="none" xmlns="http://www.w3.org/2000/svg">
<path d="M21.5331 18.002L33.7681 5.76804C34.2235 5.29653 34.4755 4.66503 34.4698 4.00954C34.4641 3.35404 34.2012 2.72701 33.7376 2.26349C33.2741 1.79997 32.6471 1.53705 31.9916 1.53135C31.3361 1.52566 30.7046 1.77764 30.2331 2.23304L17.9981 14.467L5.7641 2.23304C5.5321 2.00073 5.25658 1.81644 4.95329 1.6907C4.65001 1.56496 4.32492 1.50024 3.9966 1.50024C3.66828 1.50024 3.34319 1.56496 3.03991 1.6907C2.73662 1.81644 2.4611 2.00073 2.2291 2.23304C1.9968 2.46504 1.8125 2.74056 1.68676 3.04385C1.56103 3.34713 1.4963 3.67222 1.4963 4.00054C1.4963 4.32885 1.56103 4.65395 1.68676 4.95723C1.8125 5.26052 1.9968 5.53604 2.2291 5.76804L14.4631 18.002L2.2011 30.265C1.85074 30.6144 1.61199 31.0598 1.51514 31.545C1.41828 32.0302 1.46767 32.5332 1.65705 32.9902C1.84643 33.4473 2.16727 33.8378 2.57889 34.1123C2.9905 34.3868 3.47436 34.5329 3.9691 34.532C4.6091 34.532 5.2491 34.288 5.7371 33.8L17.9991 21.537L30.2331 33.771C30.4651 34.0035 30.7407 34.1878 31.0441 34.3134C31.3475 34.439 31.6727 34.5035 32.0011 34.503C32.4954 34.5029 32.9786 34.3563 33.3896 34.0816C33.8006 33.807 34.1209 33.4167 34.3102 32.96C34.4994 32.5033 34.549 32.0008 34.4527 31.516C34.3564 31.0311 34.1185 30.5857 33.7691 30.236L21.5331 18.002Z" fill="white"/>
</svg>
